<mxfile host="app.diagrams.net" agent="Mozilla/5.0 (X11; Ubuntu; Linux x86_64; rv:140.0) Gecko/20100101 Firefox/140.0" version="27.1.6" pages="5">
  <diagram name="1. voter-circuit" id="-BY3RIMELlOST2Ke_Soi">
    <mxGraphModel dx="1321" dy="780" grid="1" gridSize="10" guides="1" tooltips="1" connect="1" arrows="1" fold="1" page="1" pageScale="1" pageWidth="1100" pageHeight="850" math="1" shadow="0">
      <root>
        <mxCell id="9w8_UW6vJWkl_njZVMp4-0" />
        <mxCell id="9w8_UW6vJWkl_njZVMp4-1" parent="9w8_UW6vJWkl_njZVMp4-0" />
        <mxCell id="nvt69mghrfZXCWMQVhOf-0" value="&lt;div&gt;&lt;br&gt;&lt;/div&gt;" style="rounded=0;whiteSpace=wrap;html=1;fontSize=11;" parent="9w8_UW6vJWkl_njZVMp4-1" vertex="1">
          <mxGeometry x="400" y="50" width="820" height="310" as="geometry" />
        </mxCell>
        <mxCell id="nvt69mghrfZXCWMQVhOf-1" value="" style="rounded=0;whiteSpace=wrap;html=1;fontFamily=Courier New;" parent="9w8_UW6vJWkl_njZVMp4-1" vertex="1">
          <mxGeometry x="420" y="140" width="780" height="130" as="geometry" />
        </mxCell>
        <mxCell id="9w8_UW6vJWkl_njZVMp4-4" value="&lt;div&gt;\(\text{protocolRulesCompliance}(\text{ballotMode, weight, ballot})\)&lt;/div&gt;" style="rounded=0;whiteSpace=wrap;html=1;fontSize=11;fillColor=#dae8fc;strokeColor=#6c8ebf;fontFamily=Courier New;" parent="9w8_UW6vJWkl_njZVMp4-1" vertex="1">
          <mxGeometry x="440" y="190" width="320" height="40" as="geometry" />
        </mxCell>
        <mxCell id="9w8_UW6vJWkl_njZVMp4-5" value="" style="edgeStyle=orthogonalEdgeStyle;rounded=0;orthogonalLoop=1;jettySize=auto;html=1;entryX=0.125;entryY=0;entryDx=0;entryDy=0;entryPerimeter=0;" parent="9w8_UW6vJWkl_njZVMp4-1" source="9w8_UW6vJWkl_njZVMp4-6" target="9w8_UW6vJWkl_njZVMp4-4" edge="1">
          <mxGeometry relative="1" as="geometry" />
        </mxCell>
        <mxCell id="9w8_UW6vJWkl_njZVMp4-6" value="$$\text{ballotMode}$$" style="rounded=0;whiteSpace=wrap;html=1;fontSize=11;fillColor=#d5e8d4;strokeColor=#82b366;fontFamily=Courier New;" parent="9w8_UW6vJWkl_njZVMp4-1" vertex="1">
          <mxGeometry x="440" y="80" width="80" height="40" as="geometry" />
        </mxCell>
        <mxCell id="9w8_UW6vJWkl_njZVMp4-7" value="" style="edgeStyle=orthogonalEdgeStyle;rounded=0;orthogonalLoop=1;jettySize=auto;html=1;entryX=0.165;entryY=-0.015;entryDx=0;entryDy=0;entryPerimeter=0;startArrow=oval;startFill=1;fontSize=11;fontFamily=Courier New;" parent="9w8_UW6vJWkl_njZVMp4-1" target="9w8_UW6vJWkl_njZVMp4-14" edge="1">
          <mxGeometry relative="1" as="geometry">
            <mxPoint x="720" y="160" as="sourcePoint" />
            <Array as="points">
              <mxPoint x="810" y="160" />
            </Array>
          </mxGeometry>
        </mxCell>
        <mxCell id="9w8_UW6vJWkl_njZVMp4-8" value="" style="edgeStyle=orthogonalEdgeStyle;rounded=0;orthogonalLoop=1;jettySize=auto;html=1;fontSize=11;fontFamily=Courier New;" parent="9w8_UW6vJWkl_njZVMp4-1" source="9w8_UW6vJWkl_njZVMp4-9" edge="1">
          <mxGeometry relative="1" as="geometry">
            <mxPoint x="720" y="190" as="targetPoint" />
            <Array as="points">
              <mxPoint x="720" y="190" />
            </Array>
          </mxGeometry>
        </mxCell>
        <mxCell id="9w8_UW6vJWkl_njZVMp4-9" value="$$\text{ballot}$$" style="rounded=0;whiteSpace=wrap;html=1;fontSize=11;fillColor=#f8cecc;strokeColor=#b85450;fontFamily=Courier New;" parent="9w8_UW6vJWkl_njZVMp4-1" vertex="1">
          <mxGeometry x="680" y="80" width="80" height="40" as="geometry" />
        </mxCell>
        <mxCell id="9w8_UW6vJWkl_njZVMp4-10" value="" style="edgeStyle=orthogonalEdgeStyle;rounded=0;orthogonalLoop=1;jettySize=auto;html=1;entryX=0.445;entryY=0.014;entryDx=0;entryDy=0;entryPerimeter=0;fontSize=11;fontFamily=Courier New;" parent="9w8_UW6vJWkl_njZVMp4-1" target="9w8_UW6vJWkl_njZVMp4-14" edge="1">
          <mxGeometry relative="1" as="geometry">
            <mxPoint x="860" y="120" as="sourcePoint" />
          </mxGeometry>
        </mxCell>
        <mxCell id="9w8_UW6vJWkl_njZVMp4-12" value="" style="edgeStyle=orthogonalEdgeStyle;rounded=0;orthogonalLoop=1;jettySize=auto;html=1;entryX=0.833;entryY=0.003;entryDx=0;entryDy=0;entryPerimeter=0;fontSize=11;fontFamily=Courier New;" parent="9w8_UW6vJWkl_njZVMp4-1" target="9w8_UW6vJWkl_njZVMp4-14" edge="1">
          <mxGeometry relative="1" as="geometry">
            <mxPoint x="930" y="120" as="sourcePoint" />
          </mxGeometry>
        </mxCell>
        <mxCell id="9w8_UW6vJWkl_njZVMp4-14" value="$$\text{Enc}_{EPK}(\text{ballot}, k)$$" style="rounded=0;whiteSpace=wrap;html=1;fontSize=11;fontFamily=Courier New;fillColor=#f5f5f5;fontColor=#333333;strokeColor=#666666;" parent="9w8_UW6vJWkl_njZVMp4-1" vertex="1">
          <mxGeometry x="780" y="190" width="180" height="40" as="geometry" />
        </mxCell>
        <mxCell id="9w8_UW6vJWkl_njZVMp4-15" value="" style="endArrow=classic;html=1;rounded=0;exitX=0.5;exitY=1;exitDx=0;exitDy=0;entryX=0.5;entryY=0;entryDx=0;entryDy=0;fontSize=11;fontFamily=Courier New;" parent="9w8_UW6vJWkl_njZVMp4-1" source="9w8_UW6vJWkl_njZVMp4-4" target="9w8_UW6vJWkl_njZVMp4-16" edge="1">
          <mxGeometry width="50" height="50" relative="1" as="geometry">
            <mxPoint x="639.58" y="230" as="sourcePoint" />
            <mxPoint x="639.58" y="390" as="targetPoint" />
          </mxGeometry>
        </mxCell>
        <mxCell id="9w8_UW6vJWkl_njZVMp4-16" value="true" style="rounded=0;whiteSpace=wrap;html=1;fontSize=11;fontFamily=Courier New;strokeColor=none;" parent="9w8_UW6vJWkl_njZVMp4-1" vertex="1">
          <mxGeometry x="560" y="300" width="80" height="40" as="geometry" />
        </mxCell>
        <mxCell id="9w8_UW6vJWkl_njZVMp4-17" value="" style="endArrow=classic;html=1;rounded=0;exitX=0.5;exitY=1;exitDx=0;exitDy=0;entryX=0.5;entryY=0;entryDx=0;entryDy=0;fontSize=11;fontFamily=Courier New;" parent="9w8_UW6vJWkl_njZVMp4-1" source="9w8_UW6vJWkl_njZVMp4-14" target="9w8_UW6vJWkl_njZVMp4-18" edge="1">
          <mxGeometry width="50" height="50" relative="1" as="geometry">
            <mxPoint x="880" y="230" as="sourcePoint" />
            <mxPoint x="870" y="510" as="targetPoint" />
          </mxGeometry>
        </mxCell>
        <mxCell id="9w8_UW6vJWkl_njZVMp4-18" value="$$(C_1, C_2)$$" style="rounded=0;whiteSpace=wrap;html=1;fontSize=11;fillColor=#d5e8d4;strokeColor=#82b366;fontFamily=Courier New;" parent="9w8_UW6vJWkl_njZVMp4-1" vertex="1">
          <mxGeometry x="830" y="300" width="80" height="40" as="geometry" />
        </mxCell>
        <mxCell id="9w8_UW6vJWkl_njZVMp4-19" value="PROTOCOL RULES COMPLIANCE" style="text;html=1;align=center;verticalAlign=middle;whiteSpace=wrap;rounded=0;fontFamily=Courier New;fillColor=#dae8fc;strokeColor=#6c8ebf;fontSize=11;" parent="9w8_UW6vJWkl_njZVMp4-1" vertex="1">
          <mxGeometry x="430" y="390.63" width="322.35" height="40" as="geometry" />
        </mxCell>
        <mxCell id="9w8_UW6vJWkl_njZVMp4-20" value="VOTE ENCRYPTION" style="text;html=1;align=center;verticalAlign=middle;whiteSpace=wrap;rounded=0;fontFamily=Courier New;fillColor=#f5f5f5;strokeColor=#666666;fontSize=11;fontColor=#333333;" parent="9w8_UW6vJWkl_njZVMp4-1" vertex="1">
          <mxGeometry x="777" y="390.63" width="190" height="40" as="geometry" />
        </mxCell>
        <mxCell id="9w8_UW6vJWkl_njZVMp4-21" value="" style="strokeWidth=1;html=1;shape=mxgraph.flowchart.annotation_2;align=left;labelPosition=right;pointerEvents=1;rotation=-90;" parent="9w8_UW6vJWkl_njZVMp4-1" vertex="1">
          <mxGeometry x="580.39" y="217.12" width="20" height="327.04" as="geometry" />
        </mxCell>
        <mxCell id="9w8_UW6vJWkl_njZVMp4-22" value="" style="strokeWidth=1;html=1;shape=mxgraph.flowchart.annotation_2;align=left;labelPosition=right;pointerEvents=1;rotation=-90;" parent="9w8_UW6vJWkl_njZVMp4-1" vertex="1">
          <mxGeometry x="862.52" y="287.87" width="20" height="185.56" as="geometry" />
        </mxCell>
        <mxCell id="9w8_UW6vJWkl_njZVMp4-23" value="" style="edgeStyle=orthogonalEdgeStyle;rounded=0;orthogonalLoop=1;jettySize=auto;html=1;" parent="9w8_UW6vJWkl_njZVMp4-1" source="9w8_UW6vJWkl_njZVMp4-24" target="9w8_UW6vJWkl_njZVMp4-4" edge="1">
          <mxGeometry relative="1" as="geometry" />
        </mxCell>
        <mxCell id="9w8_UW6vJWkl_njZVMp4-24" value="$$\text{weight}$$" style="rounded=0;whiteSpace=wrap;html=1;fontSize=11;fillColor=#d5e8d4;strokeColor=#82b366;fontFamily=Courier New;" parent="9w8_UW6vJWkl_njZVMp4-1" vertex="1">
          <mxGeometry x="560" y="80" width="80" height="40" as="geometry" />
        </mxCell>
        <mxCell id="OdLuYHqov1AF89vjBi5t-0" value="$$\text{Hash}(\text{address} || \text{processID} || k)$$" style="rounded=0;whiteSpace=wrap;html=1;fontSize=11;fontFamily=Courier New;fillColor=#ffe6cc;strokeColor=#d79b00;" parent="9w8_UW6vJWkl_njZVMp4-1" vertex="1">
          <mxGeometry x="980" y="190" width="200" height="40" as="geometry" />
        </mxCell>
        <mxCell id="OdLuYHqov1AF89vjBi5t-1" value="" style="endArrow=classic;html=1;rounded=0;exitX=0.5;exitY=1;exitDx=0;exitDy=0;entryX=0.5;entryY=0;entryDx=0;entryDy=0;fontSize=11;fontFamily=Courier New;" parent="9w8_UW6vJWkl_njZVMp4-1" source="OdLuYHqov1AF89vjBi5t-5" edge="1">
          <mxGeometry width="50" height="50" relative="1" as="geometry">
            <mxPoint x="1150" y="160" as="sourcePoint" />
            <mxPoint x="1150" y="190" as="targetPoint" />
          </mxGeometry>
        </mxCell>
        <mxCell id="OdLuYHqov1AF89vjBi5t-2" value="" style="endArrow=classic;html=1;rounded=0;exitX=0.5;exitY=1;exitDx=0;exitDy=0;entryX=0.149;entryY=-0.005;entryDx=0;entryDy=0;entryPerimeter=0;fontSize=11;fontFamily=Courier New;" parent="9w8_UW6vJWkl_njZVMp4-1" source="OdLuYHqov1AF89vjBi5t-4" edge="1">
          <mxGeometry width="50" height="50" relative="1" as="geometry">
            <mxPoint x="1079.8899999999999" y="150" as="sourcePoint" />
            <mxPoint x="1079.8000000000002" y="189.79999999999995" as="targetPoint" />
          </mxGeometry>
        </mxCell>
        <mxCell id="OdLuYHqov1AF89vjBi5t-3" value="" style="endArrow=classic;html=1;rounded=0;entryX=0.5;entryY=0;entryDx=0;entryDy=0;exitX=0.5;exitY=1;exitDx=0;exitDy=0;fontSize=11;fontFamily=Courier New;" parent="9w8_UW6vJWkl_njZVMp4-1" source="OdLuYHqov1AF89vjBi5t-0" target="OdLuYHqov1AF89vjBi5t-6" edge="1">
          <mxGeometry width="50" height="50" relative="1" as="geometry">
            <mxPoint x="1079.58" y="230" as="sourcePoint" />
            <mxPoint x="1080" y="710" as="targetPoint" />
          </mxGeometry>
        </mxCell>
        <mxCell id="OdLuYHqov1AF89vjBi5t-4" value="&lt;div style=&quot;font-size: 11px;&quot;&gt;$$\text{address}$$&lt;/div&gt;" style="rounded=0;whiteSpace=wrap;html=1;fontSize=11;fillColor=#d5e8d4;strokeColor=#82b366;fontFamily=Courier New;" parent="9w8_UW6vJWkl_njZVMp4-1" vertex="1">
          <mxGeometry x="1050" y="80" width="60" height="40" as="geometry" />
        </mxCell>
        <mxCell id="OdLuYHqov1AF89vjBi5t-5" value="$$\text{processID}$$" style="rounded=0;whiteSpace=wrap;html=1;fontSize=11;fillColor=#d5e8d4;strokeColor=#82b366;fontFamily=Courier New;" parent="9w8_UW6vJWkl_njZVMp4-1" vertex="1">
          <mxGeometry x="1120" y="80" width="60" height="40" as="geometry" />
        </mxCell>
        <mxCell id="OdLuYHqov1AF89vjBi5t-6" value="$$\text{voteID}$$" style="rounded=0;whiteSpace=wrap;html=1;fontSize=11;fillColor=#d5e8d4;strokeColor=#82b366;fontFamily=Courier New;" parent="9w8_UW6vJWkl_njZVMp4-1" vertex="1">
          <mxGeometry x="1050" y="300" width="60" height="40" as="geometry" />
        </mxCell>
        <mxCell id="OdLuYHqov1AF89vjBi5t-7" value="" style="edgeStyle=orthogonalEdgeStyle;rounded=0;orthogonalLoop=1;jettySize=auto;html=1;startArrow=oval;startFill=1;fontSize=11;fontFamily=Courier New;" parent="9w8_UW6vJWkl_njZVMp4-1" edge="1">
          <mxGeometry relative="1" as="geometry">
            <mxPoint x="930" y="160" as="sourcePoint" />
            <mxPoint x="1010" y="190" as="targetPoint" />
            <Array as="points">
              <mxPoint x="930" y="160" />
              <mxPoint x="1010" y="160" />
            </Array>
          </mxGeometry>
        </mxCell>
        <mxCell id="OdLuYHqov1AF89vjBi5t-8" value="$$k$$" style="rounded=0;whiteSpace=wrap;html=1;fontSize=11;fillColor=#f8cecc;strokeColor=#b85450;fontFamily=Courier New;" parent="9w8_UW6vJWkl_njZVMp4-1" vertex="1">
          <mxGeometry x="900" y="80" width="60" height="40" as="geometry" />
        </mxCell>
        <mxCell id="OdLuYHqov1AF89vjBi5t-9" value="&lt;div style=&quot;font-size: 11px;&quot;&gt;$$EPK$$&lt;/div&gt;" style="rounded=0;whiteSpace=wrap;html=1;fontSize=11;fillColor=#d5e8d4;strokeColor=#82b366;fontFamily=Courier New;" parent="9w8_UW6vJWkl_njZVMp4-1" vertex="1">
          <mxGeometry x="830.66" y="80" width="60" height="40" as="geometry" />
        </mxCell>
        <mxCell id="IJeOMj3sBRJv-nG6xJRO-0" value="VOTE ID" style="text;html=1;align=center;verticalAlign=middle;whiteSpace=wrap;rounded=0;fontFamily=Courier New;fillColor=#ffe6cc;strokeColor=#d79b00;fontSize=11;" parent="9w8_UW6vJWkl_njZVMp4-1" vertex="1">
          <mxGeometry x="979.99" y="390.65" width="208.01" height="40" as="geometry" />
        </mxCell>
        <mxCell id="IJeOMj3sBRJv-nG6xJRO-1" value="" style="strokeWidth=1;html=1;shape=mxgraph.flowchart.annotation_2;align=left;labelPosition=right;pointerEvents=1;rotation=-90;" parent="9w8_UW6vJWkl_njZVMp4-1" vertex="1">
          <mxGeometry x="1073.44" y="276.99" width="20" height="207.33" as="geometry" />
        </mxCell>
      </root>
    </mxGraphModel>
  </diagram>
  <diagram name="2. authentication-circuit" id="o6OCBXuaYOciUBZEVznX">
    <mxGraphModel dx="2056" dy="2063" grid="1" gridSize="10" guides="1" tooltips="1" connect="1" arrows="1" fold="1" page="1" pageScale="1" pageWidth="1100" pageHeight="850" math="1" shadow="0">
      <root>
        <mxCell id="6AO6W4_8KHMcSuPCPKqw-0" />
        <mxCell id="6AO6W4_8KHMcSuPCPKqw-1" parent="6AO6W4_8KHMcSuPCPKqw-0" />
        <mxCell id="n4zl9lOKqNB3rH38xvPK-0" value="&lt;div&gt;&lt;br&gt;&lt;/div&gt;" style="rounded=0;whiteSpace=wrap;html=1;fontSize=11;" parent="6AO6W4_8KHMcSuPCPKqw-1" vertex="1">
          <mxGeometry x="80" y="-760" width="1280" height="500" as="geometry" />
        </mxCell>
        <mxCell id="n4zl9lOKqNB3rH38xvPK-1" value="&lt;div&gt;&lt;br&gt;&lt;/div&gt;" style="rounded=0;whiteSpace=wrap;html=1;fontSize=11;" parent="6AO6W4_8KHMcSuPCPKqw-1" vertex="1">
          <mxGeometry x="110" y="-679.88" width="1220" height="339.88" as="geometry" />
        </mxCell>
        <mxCell id="6AO6W4_8KHMcSuPCPKqw-4" value="$$\text{Proof.verify}(\text{voteProof, public inputs})$$" style="rounded=0;whiteSpace=wrap;html=1;fontSize=10;fillColor=#fff2cc;strokeColor=#d6b656;fontFamily=Courier New;" parent="6AO6W4_8KHMcSuPCPKqw-1" vertex="1">
          <mxGeometry x="130" y="-410" width="200" height="40" as="geometry" />
        </mxCell>
        <mxCell id="6AO6W4_8KHMcSuPCPKqw-5" value="" style="endArrow=classic;html=1;rounded=0;exitX=0.5;exitY=1;exitDx=0;exitDy=0;entryX=0.25;entryY=0;entryDx=0;entryDy=0;fontSize=11;" parent="6AO6W4_8KHMcSuPCPKqw-1" source="6AO6W4_8KHMcSuPCPKqw-7" target="6AO6W4_8KHMcSuPCPKqw-4" edge="1">
          <mxGeometry width="50" height="50" relative="1" as="geometry">
            <mxPoint x="159.89" y="-639.88" as="sourcePoint" />
            <mxPoint x="159.89" y="-589.88" as="targetPoint" />
          </mxGeometry>
        </mxCell>
        <mxCell id="6AO6W4_8KHMcSuPCPKqw-6" value="" style="endArrow=classic;html=1;rounded=0;exitX=0.5;exitY=1;exitDx=0;exitDy=0;fontSize=11;entryX=0.5;entryY=0;entryDx=0;entryDy=0;" parent="6AO6W4_8KHMcSuPCPKqw-1" source="6AO6W4_8KHMcSuPCPKqw-4" target="6AO6W4_8KHMcSuPCPKqw-47" edge="1">
          <mxGeometry width="50" height="50" relative="1" as="geometry">
            <mxPoint x="229.57999999999998" y="-449.88" as="sourcePoint" />
            <mxPoint x="230" y="-320" as="targetPoint" />
          </mxGeometry>
        </mxCell>
        <mxCell id="6AO6W4_8KHMcSuPCPKqw-7" value="&lt;div style=&quot;font-size: 11px;&quot;&gt;$$\text{voteProof}$$&lt;/div&gt;" style="rounded=0;whiteSpace=wrap;html=1;fontSize=11;fillColor=#f8cecc;strokeColor=#b85450;fontFamily=Courier New;" parent="6AO6W4_8KHMcSuPCPKqw-1" vertex="1">
          <mxGeometry x="150" y="-736.88" width="60" height="40" as="geometry" />
        </mxCell>
        <mxCell id="6AO6W4_8KHMcSuPCPKqw-8" value="" style="edgeStyle=orthogonalEdgeStyle;rounded=0;orthogonalLoop=1;jettySize=auto;html=1;entryX=0.75;entryY=0;entryDx=0;entryDy=0;fontSize=11;startArrow=none;startFill=0;exitX=0.5;exitY=1;exitDx=0;exitDy=0;" parent="6AO6W4_8KHMcSuPCPKqw-1" source="6AO6W4_8KHMcSuPCPKqw-9" target="6AO6W4_8KHMcSuPCPKqw-4" edge="1">
          <mxGeometry relative="1" as="geometry">
            <mxPoint x="560" y="-440" as="sourcePoint" />
            <mxPoint x="760" y="-470.88" as="targetPoint" />
            <Array as="points">
              <mxPoint x="512" y="-440" />
              <mxPoint x="280" y="-440" />
            </Array>
          </mxGeometry>
        </mxCell>
        <mxCell id="6AO6W4_8KHMcSuPCPKqw-9" value="$$\text{public inputs}$$" style="rounded=0;whiteSpace=wrap;html=1;fontSize=11;fillColor=#fff2cc;strokeColor=#d6b656;fontFamily=Courier New;" parent="6AO6W4_8KHMcSuPCPKqw-1" vertex="1">
          <mxGeometry x="270" y="-509.88" width="390" height="40" as="geometry" />
        </mxCell>
        <mxCell id="6AO6W4_8KHMcSuPCPKqw-12" value="" style="edgeStyle=orthogonalEdgeStyle;rounded=0;orthogonalLoop=1;jettySize=auto;html=1;" parent="6AO6W4_8KHMcSuPCPKqw-1" source="6AO6W4_8KHMcSuPCPKqw-13" target="6AO6W4_8KHMcSuPCPKqw-14" edge="1">
          <mxGeometry relative="1" as="geometry" />
        </mxCell>
        <mxCell id="6AO6W4_8KHMcSuPCPKqw-13" value="$$pk$$" style="rounded=0;whiteSpace=wrap;html=1;fontSize=11;fillColor=#d5e8d4;strokeColor=#82b366;fontFamily=Courier New;" parent="6AO6W4_8KHMcSuPCPKqw-1" vertex="1">
          <mxGeometry x="1050" y="-736.88" width="60" height="40" as="geometry" />
        </mxCell>
        <mxCell id="6AO6W4_8KHMcSuPCPKqw-15" value="$$\text{censusProof}$$" style="rounded=0;whiteSpace=wrap;html=1;fontSize=11;fillColor=#f8cecc;strokeColor=#b85450;fontFamily=Courier New;" parent="6AO6W4_8KHMcSuPCPKqw-1" vertex="1">
          <mxGeometry x="770" y="-736.88" width="80" height="40" as="geometry" />
        </mxCell>
        <mxCell id="6AO6W4_8KHMcSuPCPKqw-16" style="edgeStyle=orthogonalEdgeStyle;rounded=0;orthogonalLoop=1;jettySize=auto;html=1;exitX=0.5;exitY=1;exitDx=0;exitDy=0;entryX=0.702;entryY=0.009;entryDx=0;entryDy=0;entryPerimeter=0;" parent="6AO6W4_8KHMcSuPCPKqw-1" source="6AO6W4_8KHMcSuPCPKqw-17" target="6AO6W4_8KHMcSuPCPKqw-21" edge="1">
          <mxGeometry relative="1" as="geometry">
            <mxPoint x="1240" y="-309.88" as="targetPoint" />
          </mxGeometry>
        </mxCell>
        <mxCell id="6AO6W4_8KHMcSuPCPKqw-17" value="$$\text{signature}$$" style="rounded=0;whiteSpace=wrap;html=1;fontSize=11;fillColor=#f8cecc;strokeColor=#b85450;fontFamily=Courier New;" parent="6AO6W4_8KHMcSuPCPKqw-1" vertex="1">
          <mxGeometry x="1200" y="-736.88" width="80" height="40" as="geometry" />
        </mxCell>
        <mxCell id="6AO6W4_8KHMcSuPCPKqw-18" value="" style="edgeStyle=orthogonalEdgeStyle;rounded=0;orthogonalLoop=1;jettySize=auto;html=1;" parent="6AO6W4_8KHMcSuPCPKqw-1" source="6AO6W4_8KHMcSuPCPKqw-19" edge="1">
          <mxGeometry relative="1" as="geometry">
            <mxPoint x="900" y="-470" as="targetPoint" />
          </mxGeometry>
        </mxCell>
        <mxCell id="6AO6W4_8KHMcSuPCPKqw-19" value="$$\text{censusRoot}$$" style="rounded=0;whiteSpace=wrap;html=1;fontSize=11;fillColor=#d5e8d4;strokeColor=#82b366;fontFamily=Courier New;" parent="6AO6W4_8KHMcSuPCPKqw-1" vertex="1">
          <mxGeometry x="860" y="-736.88" width="80" height="40" as="geometry" />
        </mxCell>
        <mxCell id="6AO6W4_8KHMcSuPCPKqw-20" style="edgeStyle=orthogonalEdgeStyle;rounded=0;orthogonalLoop=1;jettySize=auto;html=1;entryX=0.5;entryY=0;entryDx=0;entryDy=0;" parent="6AO6W4_8KHMcSuPCPKqw-1" source="6AO6W4_8KHMcSuPCPKqw-21" target="6AO6W4_8KHMcSuPCPKqw-49" edge="1">
          <mxGeometry relative="1" as="geometry">
            <mxPoint x="1200" y="-320" as="targetPoint" />
          </mxGeometry>
        </mxCell>
        <mxCell id="6AO6W4_8KHMcSuPCPKqw-21" value="$$\text{Signature.verify}_{pk}(\text{voteID, signature})$$" style="rounded=0;whiteSpace=wrap;html=1;fontSize=10;fillColor=#e1d5e7;strokeColor=#9673a6;fontFamily=Courier New;" parent="6AO6W4_8KHMcSuPCPKqw-1" vertex="1">
          <mxGeometry x="1100" y="-410" width="200" height="40" as="geometry" />
        </mxCell>
        <mxCell id="6AO6W4_8KHMcSuPCPKqw-22" value="" style="edgeStyle=orthogonalEdgeStyle;rounded=0;orthogonalLoop=1;jettySize=auto;html=1;fontSize=11;startArrow=oval;startFill=1;" parent="6AO6W4_8KHMcSuPCPKqw-1" target="6AO6W4_8KHMcSuPCPKqw-21" edge="1">
          <mxGeometry relative="1" as="geometry">
            <mxPoint x="1080" y="-629.88" as="sourcePoint" />
            <mxPoint x="1140" y="-320" as="targetPoint" />
            <Array as="points">
              <mxPoint x="1140" y="-630" />
            </Array>
          </mxGeometry>
        </mxCell>
        <mxCell id="6AO6W4_8KHMcSuPCPKqw-23" value="" style="edgeStyle=orthogonalEdgeStyle;rounded=0;orthogonalLoop=1;jettySize=auto;html=1;fontSize=11;startArrow=oval;startFill=1;jumpStyle=arc;" parent="6AO6W4_8KHMcSuPCPKqw-1" edge="1">
          <mxGeometry relative="1" as="geometry">
            <mxPoint x="950" y="-540" as="sourcePoint" />
            <mxPoint x="950" y="-470" as="targetPoint" />
            <Array as="points">
              <mxPoint x="950" y="-480" />
            </Array>
          </mxGeometry>
        </mxCell>
        <mxCell id="6AO6W4_8KHMcSuPCPKqw-24" style="edgeStyle=orthogonalEdgeStyle;rounded=0;orthogonalLoop=1;jettySize=auto;html=1;entryX=0.5;entryY=0;entryDx=0;entryDy=0;" parent="6AO6W4_8KHMcSuPCPKqw-1" source="6AO6W4_8KHMcSuPCPKqw-25" target="6AO6W4_8KHMcSuPCPKqw-48" edge="1">
          <mxGeometry relative="1" as="geometry">
            <mxPoint x="880" y="-320" as="targetPoint" />
          </mxGeometry>
        </mxCell>
        <mxCell id="6AO6W4_8KHMcSuPCPKqw-25" value="&lt;div&gt;$$\text{MT.verify}((\text{weight, address}), \text{censusProof, censusRoot})$$&lt;/div&gt;" style="rounded=0;whiteSpace=wrap;html=1;fontSize=11;fillColor=#dae8fc;strokeColor=#6c8ebf;fontFamily=Courier New;" parent="6AO6W4_8KHMcSuPCPKqw-1" vertex="1">
          <mxGeometry x="720" y="-469.88" width="320" height="40" as="geometry" />
        </mxCell>
        <mxCell id="6AO6W4_8KHMcSuPCPKqw-26" value="" style="endArrow=classic;html=1;rounded=0;fontSize=11;startArrow=oval;startFill=1;" parent="6AO6W4_8KHMcSuPCPKqw-1" edge="1">
          <mxGeometry width="50" height="50" relative="1" as="geometry">
            <mxPoint x="670" y="-630" as="sourcePoint" />
            <mxPoint x="770" y="-470" as="targetPoint" />
            <Array as="points">
              <mxPoint x="770" y="-630" />
              <mxPoint x="770" y="-510" />
            </Array>
          </mxGeometry>
        </mxCell>
        <mxCell id="6AO6W4_8KHMcSuPCPKqw-27" style="edgeStyle=orthogonalEdgeStyle;rounded=0;orthogonalLoop=1;jettySize=auto;html=1;exitX=0.5;exitY=1;exitDx=0;exitDy=0;" parent="6AO6W4_8KHMcSuPCPKqw-1" source="6AO6W4_8KHMcSuPCPKqw-15" edge="1">
          <mxGeometry relative="1" as="geometry">
            <mxPoint x="810" y="-470" as="targetPoint" />
            <mxPoint x="819.71" y="-669.88" as="sourcePoint" />
            <Array as="points">
              <mxPoint x="810" y="-470" />
            </Array>
          </mxGeometry>
        </mxCell>
        <mxCell id="6AO6W4_8KHMcSuPCPKqw-28" value="" style="edgeStyle=orthogonalEdgeStyle;rounded=0;orthogonalLoop=1;jettySize=auto;html=1;entryX=0.82;entryY=0.005;entryDx=0;entryDy=0;exitX=0.5;exitY=1;exitDx=0;exitDy=0;entryPerimeter=0;jumpStyle=arc;" parent="6AO6W4_8KHMcSuPCPKqw-1" source="6AO6W4_8KHMcSuPCPKqw-14" target="6AO6W4_8KHMcSuPCPKqw-46" edge="1">
          <mxGeometry relative="1" as="geometry">
            <mxPoint x="1080" y="-559.88" as="sourcePoint" />
            <mxPoint x="618" y="-509.88" as="targetPoint" />
            <Array as="points">
              <mxPoint x="1080" y="-539.88" />
            </Array>
          </mxGeometry>
        </mxCell>
        <mxCell id="6AO6W4_8KHMcSuPCPKqw-29" value="VOTER&#39;S PROOF VERIFICATION" style="text;html=1;align=center;verticalAlign=middle;whiteSpace=wrap;rounded=0;fontFamily=Courier New;fillColor=#fff2cc;strokeColor=#d6b656;fontSize=11;" parent="6AO6W4_8KHMcSuPCPKqw-1" vertex="1">
          <mxGeometry x="130" y="-219.25" width="560" height="40" as="geometry" />
        </mxCell>
        <mxCell id="6AO6W4_8KHMcSuPCPKqw-30" value="CENSUS MEMBERSHIP" style="text;html=1;align=center;verticalAlign=middle;whiteSpace=wrap;rounded=0;fontFamily=Courier New;fillColor=#dae8fc;strokeColor=#6c8ebf;fontSize=11;" parent="6AO6W4_8KHMcSuPCPKqw-1" vertex="1">
          <mxGeometry x="730" y="-219.25" width="307.19" height="40" as="geometry" />
        </mxCell>
        <mxCell id="6AO6W4_8KHMcSuPCPKqw-31" value="AUTHENTICATION + NON-MALLEABILITY" style="text;html=1;align=center;verticalAlign=middle;whiteSpace=wrap;rounded=0;fontFamily=Courier New;fillColor=#e1d5e7;strokeColor=#9673a6;fontSize=11;" parent="6AO6W4_8KHMcSuPCPKqw-1" vertex="1">
          <mxGeometry x="1080" y="-219.25" width="230" height="40" as="geometry" />
        </mxCell>
        <mxCell id="6AO6W4_8KHMcSuPCPKqw-32" value="" style="strokeWidth=1;html=1;shape=mxgraph.flowchart.annotation_2;align=left;labelPosition=right;pointerEvents=1;rotation=-90;" parent="6AO6W4_8KHMcSuPCPKqw-1" vertex="1">
          <mxGeometry x="400" y="-509.88" width="20" height="561.25" as="geometry" />
        </mxCell>
        <mxCell id="6AO6W4_8KHMcSuPCPKqw-33" value="" style="strokeWidth=1;html=1;shape=mxgraph.flowchart.annotation_2;align=left;labelPosition=right;pointerEvents=1;rotation=-90;" parent="6AO6W4_8KHMcSuPCPKqw-1" vertex="1">
          <mxGeometry x="872.19" y="-382.67999999999995" width="20" height="306.87" as="geometry" />
        </mxCell>
        <mxCell id="6AO6W4_8KHMcSuPCPKqw-34" value="" style="strokeWidth=1;html=1;shape=mxgraph.flowchart.annotation_2;align=left;labelPosition=right;pointerEvents=1;rotation=-90;" parent="6AO6W4_8KHMcSuPCPKqw-1" vertex="1">
          <mxGeometry x="1184.19" y="-348" width="20" height="237.5" as="geometry" />
        </mxCell>
        <mxCell id="GFPi3vpMem_EEXF4PJQ--6" value="" style="edgeStyle=orthogonalEdgeStyle;rounded=0;orthogonalLoop=1;jettySize=auto;html=1;" parent="6AO6W4_8KHMcSuPCPKqw-1" source="6AO6W4_8KHMcSuPCPKqw-38" edge="1">
          <mxGeometry relative="1" as="geometry">
            <mxPoint x="385" y="-510" as="targetPoint" />
          </mxGeometry>
        </mxCell>
        <mxCell id="6AO6W4_8KHMcSuPCPKqw-38" value="&lt;div&gt;$$\text{ballotMode}$$&lt;/div&gt;" style="rounded=0;whiteSpace=wrap;html=1;fontSize=11;fillColor=#d5e8d4;strokeColor=#82b366;fontFamily=Courier New;" parent="6AO6W4_8KHMcSuPCPKqw-1" vertex="1">
          <mxGeometry x="350" y="-736.88" width="70" height="40" as="geometry" />
        </mxCell>
        <mxCell id="GFPi3vpMem_EEXF4PJQ--8" value="" style="edgeStyle=orthogonalEdgeStyle;rounded=0;orthogonalLoop=1;jettySize=auto;html=1;" parent="6AO6W4_8KHMcSuPCPKqw-1" source="6AO6W4_8KHMcSuPCPKqw-39" edge="1">
          <mxGeometry relative="1" as="geometry">
            <mxPoint x="460" y="-510" as="targetPoint" />
          </mxGeometry>
        </mxCell>
        <mxCell id="6AO6W4_8KHMcSuPCPKqw-39" value="$$EPK$$" style="rounded=0;whiteSpace=wrap;html=1;fontSize=11;fillColor=#d5e8d4;strokeColor=#82b366;fontFamily=Courier New;" parent="6AO6W4_8KHMcSuPCPKqw-1" vertex="1">
          <mxGeometry x="430" y="-736.88" width="60" height="40" as="geometry" />
        </mxCell>
        <mxCell id="6AO6W4_8KHMcSuPCPKqw-40" value="$$(C_1, C_2)$$" style="rounded=0;whiteSpace=wrap;html=1;fontSize=11;fillColor=#d5e8d4;strokeColor=#82b366;fontFamily=Courier New;" parent="6AO6W4_8KHMcSuPCPKqw-1" vertex="1">
          <mxGeometry x="500" y="-736.88" width="60" height="40" as="geometry" />
        </mxCell>
        <mxCell id="GFPi3vpMem_EEXF4PJQ--4" value="" style="edgeStyle=orthogonalEdgeStyle;rounded=0;orthogonalLoop=1;jettySize=auto;html=1;" parent="6AO6W4_8KHMcSuPCPKqw-1" source="6AO6W4_8KHMcSuPCPKqw-42" edge="1">
          <mxGeometry relative="1" as="geometry">
            <mxPoint x="305" y="-510" as="targetPoint" />
          </mxGeometry>
        </mxCell>
        <mxCell id="6AO6W4_8KHMcSuPCPKqw-42" value="&lt;div&gt;$$\text{processID}$$&lt;/div&gt;" style="rounded=0;whiteSpace=wrap;html=1;fontSize=11;fillColor=#d5e8d4;strokeColor=#82b366;fontFamily=Courier New;" parent="6AO6W4_8KHMcSuPCPKqw-1" vertex="1">
          <mxGeometry x="270" y="-736.88" width="70" height="40" as="geometry" />
        </mxCell>
        <mxCell id="6AO6W4_8KHMcSuPCPKqw-45" value="" style="edgeStyle=orthogonalEdgeStyle;rounded=0;orthogonalLoop=1;jettySize=auto;html=1;exitX=0.5;exitY=1;exitDx=0;exitDy=0;jumpStyle=arc;" parent="6AO6W4_8KHMcSuPCPKqw-1" source="6AO6W4_8KHMcSuPCPKqw-46" edge="1">
          <mxGeometry relative="1" as="geometry">
            <mxPoint x="650" y="-510" as="targetPoint" />
            <Array as="points">
              <mxPoint x="1009" y="-530" />
              <mxPoint x="1000" y="-530" />
              <mxPoint x="1000" y="-540" />
              <mxPoint x="650" y="-540" />
              <mxPoint x="650" y="-510" />
            </Array>
          </mxGeometry>
        </mxCell>
        <mxCell id="6AO6W4_8KHMcSuPCPKqw-46" value="$$\text{address}$$" style="rounded=0;whiteSpace=wrap;html=1;fontSize=11;fillColor=default;strokeColor=none;fontFamily=Courier New;" parent="6AO6W4_8KHMcSuPCPKqw-1" vertex="1">
          <mxGeometry x="982" y="-559.88" width="60" height="39.88" as="geometry" />
        </mxCell>
        <mxCell id="6AO6W4_8KHMcSuPCPKqw-47" value="true" style="rounded=0;whiteSpace=wrap;html=1;fontSize=11;fontFamily=Courier New;strokeColor=none;" parent="6AO6W4_8KHMcSuPCPKqw-1" vertex="1">
          <mxGeometry x="190" y="-309.88" width="80" height="40" as="geometry" />
        </mxCell>
        <mxCell id="6AO6W4_8KHMcSuPCPKqw-48" value="true" style="rounded=0;whiteSpace=wrap;html=1;fontSize=11;fontFamily=Courier New;strokeColor=none;" parent="6AO6W4_8KHMcSuPCPKqw-1" vertex="1">
          <mxGeometry x="840" y="-309.88" width="80" height="40" as="geometry" />
        </mxCell>
        <mxCell id="6AO6W4_8KHMcSuPCPKqw-49" value="true" style="rounded=0;whiteSpace=wrap;html=1;fontSize=11;fontFamily=Courier New;strokeColor=none;" parent="6AO6W4_8KHMcSuPCPKqw-1" vertex="1">
          <mxGeometry x="1160" y="-309.88" width="80" height="40" as="geometry" />
        </mxCell>
        <mxCell id="6AO6W4_8KHMcSuPCPKqw-50" value="$$\text{weight}$$" style="rounded=0;whiteSpace=wrap;html=1;fontSize=11;fillColor=#f8cecc;strokeColor=#b85450;fontFamily=Courier New;" parent="6AO6W4_8KHMcSuPCPKqw-1" vertex="1">
          <mxGeometry x="640" y="-736.88" width="60" height="40" as="geometry" />
        </mxCell>
        <mxCell id="6AO6W4_8KHMcSuPCPKqw-51" value="$$\text{voteID}$$" style="rounded=0;whiteSpace=wrap;html=1;fontSize=11;fillColor=#d5e8d4;strokeColor=#82b366;fontFamily=Courier New;" parent="6AO6W4_8KHMcSuPCPKqw-1" vertex="1">
          <mxGeometry x="570" y="-736.88" width="60" height="40" as="geometry" />
        </mxCell>
        <mxCell id="GFPi3vpMem_EEXF4PJQ--1" style="edgeStyle=orthogonalEdgeStyle;rounded=0;orthogonalLoop=1;jettySize=auto;html=1;exitX=0.5;exitY=1;exitDx=0;exitDy=0;" parent="6AO6W4_8KHMcSuPCPKqw-1" source="6AO6W4_8KHMcSuPCPKqw-40" edge="1">
          <mxGeometry relative="1" as="geometry">
            <mxPoint x="530" y="-510" as="targetPoint" />
            <mxPoint x="520" y="-660" as="sourcePoint" />
            <Array as="points">
              <mxPoint x="530" y="-510" />
            </Array>
          </mxGeometry>
        </mxCell>
        <mxCell id="GFPi3vpMem_EEXF4PJQ--10" style="edgeStyle=orthogonalEdgeStyle;rounded=0;orthogonalLoop=1;jettySize=auto;html=1;exitX=0.5;exitY=1;exitDx=0;exitDy=0;" parent="6AO6W4_8KHMcSuPCPKqw-1" source="6AO6W4_8KHMcSuPCPKqw-51" edge="1">
          <mxGeometry relative="1" as="geometry">
            <mxPoint x="600" y="-510" as="targetPoint" />
            <mxPoint x="700" y="-600" as="sourcePoint" />
            <Array as="points">
              <mxPoint x="600" y="-610" />
              <mxPoint x="600" y="-610" />
            </Array>
          </mxGeometry>
        </mxCell>
        <mxCell id="GFPi3vpMem_EEXF4PJQ--11" style="edgeStyle=orthogonalEdgeStyle;rounded=0;orthogonalLoop=1;jettySize=auto;html=1;exitX=0.5;exitY=1;exitDx=0;exitDy=0;entryX=0.92;entryY=0.019;entryDx=0;entryDy=0;entryPerimeter=0;jumpStyle=arc;" parent="6AO6W4_8KHMcSuPCPKqw-1" source="6AO6W4_8KHMcSuPCPKqw-50" target="6AO6W4_8KHMcSuPCPKqw-9" edge="1">
          <mxGeometry relative="1" as="geometry">
            <mxPoint x="669.97" y="-509.88" as="targetPoint" />
            <mxPoint x="719.97" y="-676.88" as="sourcePoint" />
            <Array as="points">
              <mxPoint x="670" y="-570" />
              <mxPoint x="629" y="-570" />
            </Array>
          </mxGeometry>
        </mxCell>
        <mxCell id="6AO6W4_8KHMcSuPCPKqw-44" value="" style="edgeStyle=orthogonalEdgeStyle;rounded=0;orthogonalLoop=1;jettySize=auto;html=1;jumpStyle=arc;startArrow=oval;startFill=1;" parent="6AO6W4_8KHMcSuPCPKqw-1" target="6AO6W4_8KHMcSuPCPKqw-21" edge="1">
          <mxGeometry relative="1" as="geometry">
            <mxPoint x="600" y="-650" as="sourcePoint" />
            <mxPoint x="1162" y="-318.8800000000001" as="targetPoint" />
            <Array as="points">
              <mxPoint x="1200" y="-650" />
            </Array>
          </mxGeometry>
        </mxCell>
        <mxCell id="6AO6W4_8KHMcSuPCPKqw-14" value="$$\text{Hash}(pk)$$" style="rounded=0;whiteSpace=wrap;html=1;fontSize=11;fillColor=#dae8fc;strokeColor=#6c8ebf;fontFamily=Courier New;" parent="6AO6W4_8KHMcSuPCPKqw-1" vertex="1">
          <mxGeometry x="1040" y="-599.88" width="80" height="40" as="geometry" />
        </mxCell>
      </root>
    </mxGraphModel>
  </diagram>
  <diagram name="3. aggregate-circuit" id="88JFnn8AstWJnzEelpN0">
    <mxGraphModel dx="1233" dy="728" grid="1" gridSize="10" guides="1" tooltips="1" connect="1" arrows="1" fold="1" page="1" pageScale="1" pageWidth="1100" pageHeight="850" math="1" shadow="0">
      <root>
        <mxCell id="vWYVikCydA5HvOjBRwIf-0" />
        <mxCell id="vWYVikCydA5HvOjBRwIf-1" parent="vWYVikCydA5HvOjBRwIf-0" />
        <mxCell id="i_wgu6sUIYtOpveSoJkK-0" value="&lt;div&gt;&lt;br&gt;&lt;/div&gt;" style="rounded=0;whiteSpace=wrap;html=1;fontSize=11;" vertex="1" parent="vWYVikCydA5HvOjBRwIf-1">
          <mxGeometry x="30" y="60" width="790" height="260" as="geometry" />
        </mxCell>
        <mxCell id="i_wgu6sUIYtOpveSoJkK-1" value="&lt;div&gt;&lt;br&gt;&lt;/div&gt;" style="rounded=0;whiteSpace=wrap;html=1;fontSize=11;" vertex="1" parent="vWYVikCydA5HvOjBRwIf-1">
          <mxGeometry x="50" y="135" width="750" height="95" as="geometry" />
        </mxCell>
        <mxCell id="mhMekiSe2uiXRmLYm047-1" value="$$\text{voteID}_i$$" style="rounded=0;whiteSpace=wrap;html=1;fontSize=11;fillColor=#d5e8d4;strokeColor=#82b366;fontFamily=Courier New;" parent="vWYVikCydA5HvOjBRwIf-1" vertex="1">
          <mxGeometry x="310.00000000000006" y="80" width="60" height="40" as="geometry" />
        </mxCell>
        <mxCell id="VWBkZtje_WCXQabFDbId-4" value="$$\text{censusRoot}$$" style="rounded=0;whiteSpace=wrap;html=1;fontSize=11;fillColor=#d5e8d4;strokeColor=#82b366;fontFamily=Courier New;" parent="vWYVikCydA5HvOjBRwIf-1" vertex="1">
          <mxGeometry x="710" y="80" width="70" height="40" as="geometry" />
        </mxCell>
        <mxCell id="VWBkZtje_WCXQabFDbId-5" value="&lt;div&gt;$$\text{ballotMode}$$&lt;/div&gt;" style="rounded=0;whiteSpace=wrap;html=1;fontSize=11;fillColor=#d5e8d4;strokeColor=#82b366;fontFamily=Courier New;" parent="vWYVikCydA5HvOjBRwIf-1" vertex="1">
          <mxGeometry x="540" y="80.00000000000011" width="70" height="40" as="geometry" />
        </mxCell>
        <mxCell id="VWBkZtje_WCXQabFDbId-6" value="$$EPK$$" style="rounded=0;whiteSpace=wrap;html=1;fontSize=11;fillColor=#d5e8d4;strokeColor=#82b366;fontFamily=Courier New;" parent="vWYVikCydA5HvOjBRwIf-1" vertex="1">
          <mxGeometry x="630" y="80.00000000000011" width="60" height="40" as="geometry" />
        </mxCell>
        <mxCell id="VWBkZtje_WCXQabFDbId-7" value="$$(C_1, C_2)_i$$" style="rounded=0;whiteSpace=wrap;html=1;fontSize=11;fillColor=#d5e8d4;strokeColor=#82b366;fontFamily=Courier New;" parent="vWYVikCydA5HvOjBRwIf-1" vertex="1">
          <mxGeometry x="230" y="80.00000000000011" width="60" height="40" as="geometry" />
        </mxCell>
        <mxCell id="VWBkZtje_WCXQabFDbId-8" value="&lt;div&gt;$$\text{processID}$$&lt;/div&gt;" style="rounded=0;whiteSpace=wrap;html=1;fontSize=11;fillColor=#d5e8d4;strokeColor=#82b366;fontFamily=Courier New;" parent="vWYVikCydA5HvOjBRwIf-1" vertex="1">
          <mxGeometry x="450" y="80.00000000000011" width="70" height="40" as="geometry" />
        </mxCell>
        <mxCell id="VWBkZtje_WCXQabFDbId-11" value="$$pk_i$$" style="rounded=0;whiteSpace=wrap;html=1;fontSize=11;fillColor=#d5e8d4;strokeColor=#82b366;fontFamily=Courier New;" parent="vWYVikCydA5HvOjBRwIf-1" vertex="1">
          <mxGeometry x="390" y="80" width="40" height="40" as="geometry" />
        </mxCell>
        <mxCell id="QCU0WVTcZCZ_NDvB6I_U-1" value="true" style="rounded=0;whiteSpace=wrap;html=1;fontSize=11;fontFamily=Courier New;strokeColor=none;" parent="vWYVikCydA5HvOjBRwIf-1" vertex="1">
          <mxGeometry x="385" y="270" width="80" height="40" as="geometry" />
        </mxCell>
        <mxCell id="QCU0WVTcZCZ_NDvB6I_U-15" value="" style="endArrow=classic;html=1;rounded=0;" parent="vWYVikCydA5HvOjBRwIf-1" edge="1">
          <mxGeometry width="50" height="50" relative="1" as="geometry">
            <mxPoint x="138.83000000000004" y="120" as="sourcePoint" />
            <mxPoint x="138.83000000000004" y="160" as="targetPoint" />
          </mxGeometry>
        </mxCell>
        <mxCell id="kuW-ZrGGYPgx6TDovwxI-0" value="SHARED PUBLIC INPUTS" style="text;html=1;align=center;verticalAlign=middle;whiteSpace=wrap;rounded=0;fontFamily=Courier New;fillColor=#d5e8d4;strokeColor=#82b366;fontSize=11;" parent="vWYVikCydA5HvOjBRwIf-1" vertex="1">
          <mxGeometry x="458" y="354.01" width="319" height="40" as="geometry" />
        </mxCell>
        <mxCell id="kuW-ZrGGYPgx6TDovwxI-1" value="" style="strokeWidth=1;html=1;shape=mxgraph.flowchart.annotation_2;align=left;labelPosition=right;pointerEvents=1;rotation=-90;" parent="vWYVikCydA5HvOjBRwIf-1" vertex="1">
          <mxGeometry x="606.87" y="176.93" width="20" height="326.16" as="geometry" />
        </mxCell>
        <mxCell id="kuW-ZrGGYPgx6TDovwxI-2" value="VOTES AGGREGATION" style="text;html=1;align=center;verticalAlign=middle;whiteSpace=wrap;rounded=0;fontFamily=Courier New;fillColor=#fff2cc;strokeColor=#d6b656;fontSize=11;" parent="vWYVikCydA5HvOjBRwIf-1" vertex="1">
          <mxGeometry x="73" y="354.01" width="360" height="40" as="geometry" />
        </mxCell>
        <mxCell id="kuW-ZrGGYPgx6TDovwxI-3" value="" style="strokeWidth=1;html=1;shape=mxgraph.flowchart.annotation_2;align=left;labelPosition=right;pointerEvents=1;rotation=-90;" parent="vWYVikCydA5HvOjBRwIf-1" vertex="1">
          <mxGeometry x="242.82" y="156.88" width="20" height="366.25" as="geometry" />
        </mxCell>
        <mxCell id="KYVxoJJrrN6A2haL3CTe-1" value="&lt;div style=&quot;font-size: 11px;&quot;&gt;$$\text{authenticationProof}_i$$&lt;/div&gt;" style="rounded=0;whiteSpace=wrap;html=1;fontSize=11;fillColor=#f8cecc;strokeColor=#b85450;fontFamily=Courier New;" parent="vWYVikCydA5HvOjBRwIf-1" vertex="1">
          <mxGeometry x="70" y="80" width="140" height="40" as="geometry" />
        </mxCell>
        <mxCell id="YQak7JiX628nDuEKiX8z-1" value="" style="edgeStyle=orthogonalEdgeStyle;rounded=0;orthogonalLoop=1;jettySize=auto;html=1;" parent="vWYVikCydA5HvOjBRwIf-1" source="YQak7JiX628nDuEKiX8z-0" target="QCU0WVTcZCZ_NDvB6I_U-1" edge="1">
          <mxGeometry relative="1" as="geometry" />
        </mxCell>
        <mxCell id="YQak7JiX628nDuEKiX8z-0" value="recursive SNARK batch verifier" style="rounded=0;whiteSpace=wrap;html=1;fontSize=11;fillColor=#fff2cc;strokeColor=#d6b656;fontFamily=Courier New;" parent="vWYVikCydA5HvOjBRwIf-1" vertex="1">
          <mxGeometry x="70" y="160" width="710" height="40" as="geometry" />
        </mxCell>
        <mxCell id="52VyXC8j5xGTEDYuN6SN-2" value="" style="endArrow=classic;html=1;rounded=0;" edge="1" parent="vWYVikCydA5HvOjBRwIf-1">
          <mxGeometry width="50" height="50" relative="1" as="geometry">
            <mxPoint x="259.65999999999997" y="120" as="sourcePoint" />
            <mxPoint x="259.65999999999997" y="160" as="targetPoint" />
          </mxGeometry>
        </mxCell>
        <mxCell id="52VyXC8j5xGTEDYuN6SN-3" value="" style="endArrow=classic;html=1;rounded=0;" edge="1" parent="vWYVikCydA5HvOjBRwIf-1">
          <mxGeometry width="50" height="50" relative="1" as="geometry">
            <mxPoint x="339.65999999999997" y="120" as="sourcePoint" />
            <mxPoint x="339.65999999999997" y="160" as="targetPoint" />
          </mxGeometry>
        </mxCell>
        <mxCell id="52VyXC8j5xGTEDYuN6SN-4" value="" style="endArrow=classic;html=1;rounded=0;" edge="1" parent="vWYVikCydA5HvOjBRwIf-1">
          <mxGeometry width="50" height="50" relative="1" as="geometry">
            <mxPoint x="409.66" y="120" as="sourcePoint" />
            <mxPoint x="409.66" y="160" as="targetPoint" />
          </mxGeometry>
        </mxCell>
        <mxCell id="52VyXC8j5xGTEDYuN6SN-5" value="" style="endArrow=classic;html=1;rounded=0;" edge="1" parent="vWYVikCydA5HvOjBRwIf-1">
          <mxGeometry width="50" height="50" relative="1" as="geometry">
            <mxPoint x="484.83" y="120" as="sourcePoint" />
            <mxPoint x="484.83" y="160" as="targetPoint" />
          </mxGeometry>
        </mxCell>
        <mxCell id="52VyXC8j5xGTEDYuN6SN-6" value="" style="endArrow=classic;html=1;rounded=0;" edge="1" parent="vWYVikCydA5HvOjBRwIf-1">
          <mxGeometry width="50" height="50" relative="1" as="geometry">
            <mxPoint x="574.83" y="120" as="sourcePoint" />
            <mxPoint x="574.83" y="160" as="targetPoint" />
          </mxGeometry>
        </mxCell>
        <mxCell id="52VyXC8j5xGTEDYuN6SN-7" value="" style="endArrow=classic;html=1;rounded=0;" edge="1" parent="vWYVikCydA5HvOjBRwIf-1">
          <mxGeometry width="50" height="50" relative="1" as="geometry">
            <mxPoint x="659.83" y="120" as="sourcePoint" />
            <mxPoint x="659.83" y="160" as="targetPoint" />
          </mxGeometry>
        </mxCell>
        <mxCell id="52VyXC8j5xGTEDYuN6SN-8" value="" style="endArrow=classic;html=1;rounded=0;" edge="1" parent="vWYVikCydA5HvOjBRwIf-1">
          <mxGeometry width="50" height="50" relative="1" as="geometry">
            <mxPoint x="744.83" y="120" as="sourcePoint" />
            <mxPoint x="744.83" y="160" as="targetPoint" />
          </mxGeometry>
        </mxCell>
      </root>
    </mxGraphModel>
  </diagram>
  <diagram name="4. state-transition-circuit" id="x6B-zyxiSRkjN1jwR15T">
    <mxGraphModel dx="2642" dy="1760" grid="1" gridSize="10" guides="1" tooltips="1" connect="1" arrows="1" fold="1" page="1" pageScale="1" pageWidth="1100" pageHeight="850" math="1" shadow="0">
      <root>
        <mxCell id="ZdTqr67gGV_Two7x-mBu-0" />
        <mxCell id="ZdTqr67gGV_Two7x-mBu-1" parent="ZdTqr67gGV_Two7x-mBu-0" />
        <mxCell id="phJliGzTQF7XW9zZiR-q-19" value="" style="edgeStyle=orthogonalEdgeStyle;rounded=0;orthogonalLoop=1;jettySize=auto;html=1;entryX=0.727;entryY=-0.02;entryDx=0;entryDy=0;entryPerimeter=0;" parent="ZdTqr67gGV_Two7x-mBu-1" source="ZdTqr67gGV_Two7x-mBu-4" target="JGRwFc0fyMI5h4bvW3bD-0" edge="1">
          <mxGeometry relative="1" as="geometry" />
        </mxCell>
        <mxCell id="ZdTqr67gGV_Two7x-mBu-4" value="$$\text{voteID}_i$$" style="rounded=0;whiteSpace=wrap;html=1;fontSize=11;fillColor=#f8cecc;strokeColor=#b85450;fontFamily=Courier New;" parent="ZdTqr67gGV_Two7x-mBu-1" vertex="1">
          <mxGeometry x="120" y="40" width="80" height="40" as="geometry" />
        </mxCell>
        <mxCell id="ZdTqr67gGV_Two7x-mBu-9" value="$$\text{censusRoot}$$" style="rounded=0;whiteSpace=wrap;html=1;fontSize=11;fillColor=#f8cecc;strokeColor=#b85450;fontFamily=Courier New;" parent="ZdTqr67gGV_Two7x-mBu-1" vertex="1">
          <mxGeometry x="440" y="-10" width="80" height="40" as="geometry" />
        </mxCell>
        <mxCell id="ZdTqr67gGV_Two7x-mBu-10" value="&lt;div&gt;$$\text{ballotMode}$$&lt;/div&gt;" style="rounded=0;whiteSpace=wrap;html=1;fontSize=11;fillColor=#f8cecc;strokeColor=#b85450;fontFamily=Courier New;" parent="ZdTqr67gGV_Two7x-mBu-1" vertex="1">
          <mxGeometry x="440" y="-110" width="80" height="40" as="geometry" />
        </mxCell>
        <mxCell id="ZdTqr67gGV_Two7x-mBu-11" value="$$EPK$$" style="rounded=0;whiteSpace=wrap;html=1;fontSize=11;fillColor=#f8cecc;strokeColor=#b85450;fontFamily=Courier New;" parent="ZdTqr67gGV_Two7x-mBu-1" vertex="1">
          <mxGeometry x="440" y="-60" width="80" height="40" as="geometry" />
        </mxCell>
        <mxCell id="phJliGzTQF7XW9zZiR-q-13" value="" style="edgeStyle=orthogonalEdgeStyle;rounded=0;orthogonalLoop=1;jettySize=auto;html=1;" parent="ZdTqr67gGV_Two7x-mBu-1" source="ZdTqr67gGV_Two7x-mBu-12" target="phJliGzTQF7XW9zZiR-q-1" edge="1">
          <mxGeometry relative="1" as="geometry" />
        </mxCell>
        <mxCell id="ZdTqr67gGV_Two7x-mBu-12" value="$$(C_1, C_2)_i$$" style="rounded=0;whiteSpace=wrap;html=1;fontSize=11;fillColor=#f8cecc;strokeColor=#b85450;fontFamily=Courier New;" parent="ZdTqr67gGV_Two7x-mBu-1" vertex="1">
          <mxGeometry x="320" y="40" width="80" height="40" as="geometry" />
        </mxCell>
        <mxCell id="ZdTqr67gGV_Two7x-mBu-13" value="&lt;div&gt;$$\text{processID}$$&lt;/div&gt;" style="rounded=0;whiteSpace=wrap;html=1;fontSize=11;fillColor=#f8cecc;strokeColor=#b85450;fontFamily=Courier New;" parent="ZdTqr67gGV_Two7x-mBu-1" vertex="1">
          <mxGeometry x="440" y="40" width="80" height="40" as="geometry" />
        </mxCell>
        <mxCell id="ZdTqr67gGV_Two7x-mBu-14" value="$$pk_i$$" style="rounded=0;whiteSpace=wrap;html=1;fontSize=11;fillColor=#f8cecc;strokeColor=#b85450;fontFamily=Courier New;" parent="ZdTqr67gGV_Two7x-mBu-1" vertex="1">
          <mxGeometry x="120" y="-10" width="80" height="40" as="geometry" />
        </mxCell>
        <mxCell id="phJliGzTQF7XW9zZiR-q-21" value="" style="edgeStyle=orthogonalEdgeStyle;rounded=0;orthogonalLoop=1;jettySize=auto;html=1;" parent="ZdTqr67gGV_Two7x-mBu-1" source="ZdTqr67gGV_Two7x-mBu-32" edge="1">
          <mxGeometry relative="1" as="geometry">
            <mxPoint x="-100" y="160" as="targetPoint" />
          </mxGeometry>
        </mxCell>
        <mxCell id="ZdTqr67gGV_Two7x-mBu-32" value="&lt;div style=&quot;font-size: 11px;&quot;&gt;$$\text{aggregationProof}_i$$&lt;/div&gt;" style="rounded=0;whiteSpace=wrap;html=1;fontSize=11;fillColor=#f8cecc;strokeColor=#b85450;fontFamily=Courier New;" parent="ZdTqr67gGV_Two7x-mBu-1" vertex="1">
          <mxGeometry x="-160" y="40" width="120" height="40" as="geometry" />
        </mxCell>
        <mxCell id="xnlEkFcDW3wDAF-mUqor-2" value="" style="edgeStyle=orthogonalEdgeStyle;rounded=0;orthogonalLoop=1;jettySize=auto;html=1;" parent="ZdTqr67gGV_Two7x-mBu-1" source="JGRwFc0fyMI5h4bvW3bD-0" target="xnlEkFcDW3wDAF-mUqor-0" edge="1">
          <mxGeometry relative="1" as="geometry">
            <mxPoint x="60" y="270" as="targetPoint" />
          </mxGeometry>
        </mxCell>
        <mxCell id="JGRwFc0fyMI5h4bvW3bD-0" value="recursive SNARK batch verifier" style="rounded=0;whiteSpace=wrap;html=1;fontSize=11;fillColor=#fff2cc;strokeColor=#d6b656;fontFamily=Courier New;" parent="ZdTqr67gGV_Two7x-mBu-1" vertex="1">
          <mxGeometry x="-160" y="160" width="440" height="40" as="geometry" />
        </mxCell>
        <mxCell id="tK7HVng925d0syRrVfO4-0" value="AGGREGATION VERIFICATION" style="text;html=1;align=center;verticalAlign=middle;whiteSpace=wrap;rounded=0;fontFamily=Courier New;fillColor=#fff2cc;strokeColor=#d6b656;fontSize=11;" parent="ZdTqr67gGV_Two7x-mBu-1" vertex="1">
          <mxGeometry x="-170" y="440" width="440" height="40" as="geometry" />
        </mxCell>
        <mxCell id="d2DoWqZH1p_f5rfd7LTq-0" value="" style="strokeWidth=1;html=1;shape=mxgraph.flowchart.annotation_2;align=left;labelPosition=right;pointerEvents=1;rotation=-90;" parent="ZdTqr67gGV_Two7x-mBu-1" vertex="1">
          <mxGeometry x="42.18" y="202.82" width="20" height="435" as="geometry" />
        </mxCell>
        <mxCell id="wiVq041o4hXXWoejm4On-0" value="TRANSITION VERIFICATION" style="text;html=1;align=center;verticalAlign=middle;whiteSpace=wrap;rounded=0;fontFamily=Courier New;fillColor=#e1d5e7;strokeColor=#9673a6;fontSize=11;" parent="ZdTqr67gGV_Two7x-mBu-1" vertex="1">
          <mxGeometry x="720" y="440" width="400" height="40" as="geometry" />
        </mxCell>
        <mxCell id="wiVq041o4hXXWoejm4On-1" value="VOTES COUNT" style="text;html=1;align=center;verticalAlign=middle;whiteSpace=wrap;rounded=0;fontFamily=Courier New;fillColor=#dae8fc;strokeColor=#6c8ebf;fontSize=11;" parent="ZdTqr67gGV_Two7x-mBu-1" vertex="1">
          <mxGeometry x="480" y="440" width="200" height="40" as="geometry" />
        </mxCell>
        <mxCell id="phJliGzTQF7XW9zZiR-q-0" value="VOTES REENCRYPTION" style="text;html=1;align=center;verticalAlign=middle;whiteSpace=wrap;rounded=0;fontFamily=Courier New;fillColor=#ffe6cc;strokeColor=#d79b00;fontSize=11;" parent="ZdTqr67gGV_Two7x-mBu-1" vertex="1">
          <mxGeometry x="290" y="440" width="140" height="40" as="geometry" />
        </mxCell>
        <mxCell id="phJliGzTQF7XW9zZiR-q-11" value="" style="edgeStyle=orthogonalEdgeStyle;rounded=0;orthogonalLoop=1;jettySize=auto;html=1;exitX=0.5;exitY=1;exitDx=0;exitDy=0;entryX=0.083;entryY=-0.018;entryDx=0;entryDy=0;entryPerimeter=0;" parent="ZdTqr67gGV_Two7x-mBu-1" source="phJliGzTQF7XW9zZiR-q-1" target="phJliGzTQF7XW9zZiR-q-10" edge="1">
          <mxGeometry relative="1" as="geometry">
            <mxPoint x="710" y="300" as="targetPoint" />
            <Array as="points">
              <mxPoint x="360" y="220" />
              <mxPoint x="680" y="220" />
              <mxPoint x="680" y="300" />
              <mxPoint x="680" y="300" />
            </Array>
          </mxGeometry>
        </mxCell>
        <mxCell id="phJliGzTQF7XW9zZiR-q-1" value="$$ReEnc()$$" style="rounded=0;whiteSpace=wrap;html=1;fontSize=11;fillColor=#ffe6cc;strokeColor=#d79b00;fontFamily=Courier New;" parent="ZdTqr67gGV_Two7x-mBu-1" vertex="1">
          <mxGeometry x="320" y="160" width="80" height="40" as="geometry" />
        </mxCell>
        <mxCell id="phJliGzTQF7XW9zZiR-q-25" value="" style="edgeStyle=orthogonalEdgeStyle;rounded=0;orthogonalLoop=1;jettySize=auto;html=1;entryX=0.271;entryY=0;entryDx=0;entryDy=0;entryPerimeter=0;" parent="ZdTqr67gGV_Two7x-mBu-1" source="phJliGzTQF7XW9zZiR-q-3" target="phJliGzTQF7XW9zZiR-q-10" edge="1">
          <mxGeometry relative="1" as="geometry">
            <mxPoint x="770" y="190" as="targetPoint" />
          </mxGeometry>
        </mxCell>
        <mxCell id="phJliGzTQF7XW9zZiR-q-3" value="&lt;div&gt;$$\text{totalNewVotes}$$&lt;/div&gt;" style="rounded=0;whiteSpace=wrap;html=1;fontSize=11;fillColor=#d5e8d4;strokeColor=#82b366;fontFamily=Courier New;" parent="ZdTqr67gGV_Two7x-mBu-1" vertex="1">
          <mxGeometry x="720" y="80" width="100" height="40" as="geometry" />
        </mxCell>
        <mxCell id="phJliGzTQF7XW9zZiR-q-4" value="&lt;div&gt;$$\text{totalOverwrites}$$&lt;/div&gt;" style="rounded=0;whiteSpace=wrap;html=1;fontSize=11;fillColor=#d5e8d4;strokeColor=#82b366;fontFamily=Courier New;" parent="ZdTqr67gGV_Two7x-mBu-1" vertex="1">
          <mxGeometry x="720" y="30" width="100" height="40" as="geometry" />
        </mxCell>
        <mxCell id="phJliGzTQF7XW9zZiR-q-5" value="$$AddBN254()$$" style="rounded=0;whiteSpace=wrap;html=1;fontSize=11;fillColor=#dae8fc;strokeColor=#6c8ebf;fontFamily=Courier New;" parent="ZdTqr67gGV_Two7x-mBu-1" vertex="1">
          <mxGeometry x="520" y="320" width="80" height="40" as="geometry" />
        </mxCell>
        <mxCell id="phJliGzTQF7XW9zZiR-q-6" value="$$\text{stateRoot}^{\text{old}}$$" style="rounded=0;whiteSpace=wrap;html=1;fontSize=11;fillColor=#d5e8d4;strokeColor=#82b366;fontFamily=Courier New;" parent="ZdTqr67gGV_Two7x-mBu-1" vertex="1">
          <mxGeometry x="1040" y="30" width="80" height="40" as="geometry" />
        </mxCell>
        <mxCell id="phJliGzTQF7XW9zZiR-q-7" value="$$\text{stateRoot}^{\text{new}}$$" style="rounded=0;whiteSpace=wrap;html=1;fontSize=11;fillColor=#d5e8d4;strokeColor=#82b366;fontFamily=Courier New;" parent="ZdTqr67gGV_Two7x-mBu-1" vertex="1">
          <mxGeometry x="1040" y="80" width="80" height="40" as="geometry" />
        </mxCell>
        <mxCell id="phJliGzTQF7XW9zZiR-q-27" value="" style="edgeStyle=orthogonalEdgeStyle;rounded=0;orthogonalLoop=1;jettySize=auto;html=1;" parent="ZdTqr67gGV_Two7x-mBu-1" source="phJliGzTQF7XW9zZiR-q-8" target="phJliGzTQF7XW9zZiR-q-10" edge="1">
          <mxGeometry relative="1" as="geometry">
            <mxPoint x="880" y="215" as="targetPoint" />
          </mxGeometry>
        </mxCell>
        <mxCell id="phJliGzTQF7XW9zZiR-q-8" value="merkleTree&lt;br&gt;parameters&lt;br&gt;witness" style="rounded=0;whiteSpace=wrap;html=1;fontSize=11;fillColor=#f8cecc;strokeColor=#b85450;fontFamily=Courier New;" parent="ZdTqr67gGV_Two7x-mBu-1" vertex="1">
          <mxGeometry x="840" y="30" width="80" height="90" as="geometry" />
        </mxCell>
        <mxCell id="phJliGzTQF7XW9zZiR-q-9" value="merkleTree&lt;br&gt;state transition proofs" style="rounded=0;whiteSpace=wrap;html=1;fontSize=11;fillColor=#f8cecc;strokeColor=#b85450;fontFamily=Courier New;" parent="ZdTqr67gGV_Two7x-mBu-1" vertex="1">
          <mxGeometry x="940" y="30" width="80" height="90" as="geometry" />
        </mxCell>
        <mxCell id="phJliGzTQF7XW9zZiR-q-10" value="$$MerkleTreeProcessor()$$" style="rounded=0;whiteSpace=wrap;html=1;fontSize=11;fillColor=#e1d5e7;strokeColor=#9673a6;fontFamily=Courier New;" parent="ZdTqr67gGV_Two7x-mBu-1" vertex="1">
          <mxGeometry x="640" y="320" width="480" height="40" as="geometry" />
        </mxCell>
        <mxCell id="phJliGzTQF7XW9zZiR-q-12" value="" style="edgeStyle=orthogonalEdgeStyle;rounded=0;orthogonalLoop=1;jettySize=auto;html=1;entryX=0.25;entryY=0;entryDx=0;entryDy=0;startArrow=oval;startFill=1;" parent="ZdTqr67gGV_Two7x-mBu-1" edge="1">
          <mxGeometry relative="1" as="geometry">
            <mxPoint x="560" y="220" as="sourcePoint" />
            <mxPoint x="560" y="320" as="targetPoint" />
            <Array as="points">
              <mxPoint x="560" y="230" />
              <mxPoint x="560" y="230" />
            </Array>
          </mxGeometry>
        </mxCell>
        <mxCell id="phJliGzTQF7XW9zZiR-q-14" value="" style="edgeStyle=orthogonalEdgeStyle;rounded=0;orthogonalLoop=1;jettySize=auto;html=1;exitX=0.5;exitY=1;exitDx=0;exitDy=0;startArrow=oval;startFill=1;" parent="ZdTqr67gGV_Two7x-mBu-1" edge="1">
          <mxGeometry relative="1" as="geometry">
            <mxPoint x="360" y="140" as="sourcePoint" />
            <mxPoint x="240" y="160" as="targetPoint" />
            <Array as="points">
              <mxPoint x="240" y="140" />
              <mxPoint x="240" y="160" />
            </Array>
          </mxGeometry>
        </mxCell>
        <mxCell id="phJliGzTQF7XW9zZiR-q-22" value="" style="edgeStyle=orthogonalEdgeStyle;rounded=0;orthogonalLoop=1;jettySize=auto;html=1;startArrow=oval;startFill=1;jumpStyle=arc;" parent="ZdTqr67gGV_Two7x-mBu-1" edge="1">
          <mxGeometry relative="1" as="geometry">
            <mxPoint x="480" y="120" as="sourcePoint" />
            <mxPoint x="200" y="160" as="targetPoint" />
            <Array as="points">
              <mxPoint x="320" y="120" />
              <mxPoint x="200" y="120" />
            </Array>
          </mxGeometry>
        </mxCell>
        <mxCell id="phJliGzTQF7XW9zZiR-q-23" value="" style="edgeStyle=orthogonalEdgeStyle;rounded=0;orthogonalLoop=1;jettySize=auto;html=1;startArrow=none;startFill=0;" parent="ZdTqr67gGV_Two7x-mBu-1" target="phJliGzTQF7XW9zZiR-q-10" edge="1">
          <mxGeometry relative="1" as="geometry">
            <mxPoint x="480" y="80" as="sourcePoint" />
            <mxPoint x="480" y="180" as="targetPoint" />
            <Array as="points">
              <mxPoint x="480" y="160" />
              <mxPoint x="720" y="160" />
            </Array>
          </mxGeometry>
        </mxCell>
        <mxCell id="phJliGzTQF7XW9zZiR-q-28" value="" style="edgeStyle=orthogonalEdgeStyle;rounded=0;orthogonalLoop=1;jettySize=auto;html=1;" parent="ZdTqr67gGV_Two7x-mBu-1" edge="1">
          <mxGeometry relative="1" as="geometry">
            <mxPoint x="979.75" y="120" as="sourcePoint" />
            <mxPoint x="979.75" y="320" as="targetPoint" />
          </mxGeometry>
        </mxCell>
        <mxCell id="phJliGzTQF7XW9zZiR-q-29" value="" style="edgeStyle=orthogonalEdgeStyle;rounded=0;orthogonalLoop=1;jettySize=auto;html=1;" parent="ZdTqr67gGV_Two7x-mBu-1" edge="1">
          <mxGeometry relative="1" as="geometry">
            <mxPoint x="1079.75" y="120" as="sourcePoint" />
            <mxPoint x="1079.75" y="320" as="targetPoint" />
          </mxGeometry>
        </mxCell>
        <mxCell id="xnlEkFcDW3wDAF-mUqor-0" value="true" style="rounded=0;whiteSpace=wrap;html=1;fontSize=11;fontFamily=Courier New;strokeColor=none;" parent="ZdTqr67gGV_Two7x-mBu-1" vertex="1">
          <mxGeometry x="20" y="360" width="80" height="40" as="geometry" />
        </mxCell>
        <mxCell id="IpKGK8iQcOz9ALTK2j-a-0" value="$$ReEnc()$$" style="rounded=0;whiteSpace=wrap;html=1;fontSize=11;fillColor=#ffe6cc;strokeColor=#d79b00;fontFamily=Courier New;" parent="ZdTqr67gGV_Two7x-mBu-1" vertex="1">
          <mxGeometry x="890" y="200" width="80" height="40" as="geometry" />
        </mxCell>
        <mxCell id="IpKGK8iQcOz9ALTK2j-a-1" value="Old votes also need to be reencrypted! (at least, some)" style="rounded=0;whiteSpace=wrap;html=1;fontSize=11;fillColor=#ffe6cc;strokeColor=#d79b00;fontFamily=Courier New;" parent="ZdTqr67gGV_Two7x-mBu-1" vertex="1">
          <mxGeometry x="710" y="250" width="400" height="20" as="geometry" />
        </mxCell>
      </root>
    </mxGraphModel>
  </diagram>
  <diagram name="Copy of 4. state-transition-circuit" id="4M9kqhw3Y8-IgwBPYDfn">
    <mxGraphModel dx="2782" dy="1843" grid="1" gridSize="10" guides="1" tooltips="1" connect="1" arrows="1" fold="1" page="1" pageScale="1" pageWidth="1100" pageHeight="850" math="1" shadow="0">
      <root>
        <mxCell id="usbbzfsNIkUUJXwe7_7J-0" />
        <mxCell id="usbbzfsNIkUUJXwe7_7J-1" parent="usbbzfsNIkUUJXwe7_7J-0" />
        <mxCell id="usbbzfsNIkUUJXwe7_7J-2" value="" style="edgeStyle=orthogonalEdgeStyle;rounded=0;orthogonalLoop=1;jettySize=auto;html=1;entryX=0.727;entryY=-0.02;entryDx=0;entryDy=0;entryPerimeter=0;" parent="usbbzfsNIkUUJXwe7_7J-1" source="usbbzfsNIkUUJXwe7_7J-3" target="usbbzfsNIkUUJXwe7_7J-15" edge="1">
          <mxGeometry relative="1" as="geometry" />
        </mxCell>
        <mxCell id="usbbzfsNIkUUJXwe7_7J-3" value="$$\text{voteID}_i$$" style="rounded=0;whiteSpace=wrap;html=1;fontSize=11;fillColor=#f8cecc;strokeColor=#b85450;fontFamily=Courier New;" parent="usbbzfsNIkUUJXwe7_7J-1" vertex="1">
          <mxGeometry x="120" y="40" width="80" height="40" as="geometry" />
        </mxCell>
        <mxCell id="usbbzfsNIkUUJXwe7_7J-4" value="$$\text{censusRoot}$$" style="rounded=0;whiteSpace=wrap;html=1;fontSize=11;fillColor=#f8cecc;strokeColor=#b85450;fontFamily=Courier New;" parent="usbbzfsNIkUUJXwe7_7J-1" vertex="1">
          <mxGeometry x="440" y="-170" width="80" height="40" as="geometry" />
        </mxCell>
        <mxCell id="usbbzfsNIkUUJXwe7_7J-5" value="&lt;div&gt;$$\text{ballotMode}$$&lt;/div&gt;" style="rounded=0;whiteSpace=wrap;html=1;fontSize=11;fillColor=#f8cecc;strokeColor=#b85450;fontFamily=Courier New;" parent="usbbzfsNIkUUJXwe7_7J-1" vertex="1">
          <mxGeometry x="440" y="-110" width="80" height="40" as="geometry" />
        </mxCell>
        <mxCell id="usbbzfsNIkUUJXwe7_7J-6" value="$$EPK$$" style="rounded=0;whiteSpace=wrap;html=1;fontSize=11;fillColor=#f8cecc;strokeColor=#b85450;fontFamily=Courier New;" parent="usbbzfsNIkUUJXwe7_7J-1" vertex="1">
          <mxGeometry x="440" y="-60" width="80" height="40" as="geometry" />
        </mxCell>
        <mxCell id="usbbzfsNIkUUJXwe7_7J-7" value="" style="edgeStyle=orthogonalEdgeStyle;rounded=0;orthogonalLoop=1;jettySize=auto;html=1;" parent="usbbzfsNIkUUJXwe7_7J-1" source="usbbzfsNIkUUJXwe7_7J-8" target="usbbzfsNIkUUJXwe7_7J-22" edge="1">
          <mxGeometry relative="1" as="geometry" />
        </mxCell>
        <mxCell id="usbbzfsNIkUUJXwe7_7J-8" value="$$(C_1, C_2)_i$$" style="rounded=0;whiteSpace=wrap;html=1;fontSize=11;fillColor=#f8cecc;strokeColor=#b85450;fontFamily=Courier New;" parent="usbbzfsNIkUUJXwe7_7J-1" vertex="1">
          <mxGeometry x="320" y="40" width="80" height="40" as="geometry" />
        </mxCell>
        <mxCell id="usbbzfsNIkUUJXwe7_7J-9" value="&lt;div&gt;$$\text{processID}$$&lt;/div&gt;" style="rounded=0;whiteSpace=wrap;html=1;fontSize=11;fillColor=#f8cecc;strokeColor=#b85450;fontFamily=Courier New;" parent="usbbzfsNIkUUJXwe7_7J-1" vertex="1">
          <mxGeometry x="440" y="40" width="80" height="40" as="geometry" />
        </mxCell>
        <mxCell id="usbbzfsNIkUUJXwe7_7J-10" value="$$pk_i$$" style="rounded=0;whiteSpace=wrap;html=1;fontSize=11;fillColor=#f8cecc;strokeColor=#b85450;fontFamily=Courier New;" parent="usbbzfsNIkUUJXwe7_7J-1" vertex="1">
          <mxGeometry x="120" y="-10" width="80" height="40" as="geometry" />
        </mxCell>
        <mxCell id="usbbzfsNIkUUJXwe7_7J-12" value="" style="edgeStyle=orthogonalEdgeStyle;rounded=0;orthogonalLoop=1;jettySize=auto;html=1;" parent="usbbzfsNIkUUJXwe7_7J-1" source="usbbzfsNIkUUJXwe7_7J-13" edge="1">
          <mxGeometry relative="1" as="geometry">
            <mxPoint x="-100" y="160" as="targetPoint" />
          </mxGeometry>
        </mxCell>
        <mxCell id="usbbzfsNIkUUJXwe7_7J-13" value="&lt;div style=&quot;font-size: 11px;&quot;&gt;$$\text{aggregationProof}_i$$&lt;/div&gt;" style="rounded=0;whiteSpace=wrap;html=1;fontSize=11;fillColor=#f8cecc;strokeColor=#b85450;fontFamily=Courier New;" parent="usbbzfsNIkUUJXwe7_7J-1" vertex="1">
          <mxGeometry x="-160" y="40" width="120" height="40" as="geometry" />
        </mxCell>
        <mxCell id="usbbzfsNIkUUJXwe7_7J-14" value="" style="edgeStyle=orthogonalEdgeStyle;rounded=0;orthogonalLoop=1;jettySize=auto;html=1;" parent="usbbzfsNIkUUJXwe7_7J-1" source="usbbzfsNIkUUJXwe7_7J-15" target="usbbzfsNIkUUJXwe7_7J-39" edge="1">
          <mxGeometry relative="1" as="geometry">
            <mxPoint x="60" y="270" as="targetPoint" />
          </mxGeometry>
        </mxCell>
        <mxCell id="usbbzfsNIkUUJXwe7_7J-15" value="recursive SNARK batch verifier" style="rounded=0;whiteSpace=wrap;html=1;fontSize=11;fillColor=#fff2cc;strokeColor=#d6b656;fontFamily=Courier New;" parent="usbbzfsNIkUUJXwe7_7J-1" vertex="1">
          <mxGeometry x="-160" y="160" width="440" height="40" as="geometry" />
        </mxCell>
        <mxCell id="usbbzfsNIkUUJXwe7_7J-16" value="AGGREGATION VERIFICATION" style="text;html=1;align=center;verticalAlign=middle;whiteSpace=wrap;rounded=0;fontFamily=Courier New;fillColor=#fff2cc;strokeColor=#d6b656;fontSize=11;" parent="usbbzfsNIkUUJXwe7_7J-1" vertex="1">
          <mxGeometry x="-170" y="440" width="440" height="40" as="geometry" />
        </mxCell>
        <mxCell id="usbbzfsNIkUUJXwe7_7J-17" value="" style="strokeWidth=1;html=1;shape=mxgraph.flowchart.annotation_2;align=left;labelPosition=right;pointerEvents=1;rotation=-90;" parent="usbbzfsNIkUUJXwe7_7J-1" vertex="1">
          <mxGeometry x="42.18" y="202.82" width="20" height="435" as="geometry" />
        </mxCell>
        <mxCell id="usbbzfsNIkUUJXwe7_7J-18" value="TRANSITION VERIFICATION" style="text;html=1;align=center;verticalAlign=middle;whiteSpace=wrap;rounded=0;fontFamily=Courier New;fillColor=#e1d5e7;strokeColor=#9673a6;fontSize=11;" parent="usbbzfsNIkUUJXwe7_7J-1" vertex="1">
          <mxGeometry x="720" y="440" width="400" height="40" as="geometry" />
        </mxCell>
        <mxCell id="usbbzfsNIkUUJXwe7_7J-19" value="VOTES COUNT" style="text;html=1;align=center;verticalAlign=middle;whiteSpace=wrap;rounded=0;fontFamily=Courier New;fillColor=#dae8fc;strokeColor=#6c8ebf;fontSize=11;" parent="usbbzfsNIkUUJXwe7_7J-1" vertex="1">
          <mxGeometry x="480" y="440" width="200" height="40" as="geometry" />
        </mxCell>
        <mxCell id="usbbzfsNIkUUJXwe7_7J-20" value="VOTES REENCRYPTION" style="text;html=1;align=center;verticalAlign=middle;whiteSpace=wrap;rounded=0;fontFamily=Courier New;fillColor=#ffe6cc;strokeColor=#d79b00;fontSize=11;" parent="usbbzfsNIkUUJXwe7_7J-1" vertex="1">
          <mxGeometry x="290" y="440" width="140" height="40" as="geometry" />
        </mxCell>
        <mxCell id="usbbzfsNIkUUJXwe7_7J-21" value="" style="edgeStyle=orthogonalEdgeStyle;rounded=0;orthogonalLoop=1;jettySize=auto;html=1;exitX=0.5;exitY=1;exitDx=0;exitDy=0;entryX=0.083;entryY=-0.018;entryDx=0;entryDy=0;entryPerimeter=0;" parent="usbbzfsNIkUUJXwe7_7J-1" source="usbbzfsNIkUUJXwe7_7J-22" target="usbbzfsNIkUUJXwe7_7J-32" edge="1">
          <mxGeometry relative="1" as="geometry">
            <mxPoint x="710" y="300" as="targetPoint" />
            <Array as="points">
              <mxPoint x="360" y="220" />
              <mxPoint x="680" y="220" />
              <mxPoint x="680" y="300" />
              <mxPoint x="680" y="300" />
            </Array>
          </mxGeometry>
        </mxCell>
        <mxCell id="usbbzfsNIkUUJXwe7_7J-22" value="$$ReEnc()$$" style="rounded=0;whiteSpace=wrap;html=1;fontSize=11;fillColor=#ffe6cc;strokeColor=#d79b00;fontFamily=Courier New;" parent="usbbzfsNIkUUJXwe7_7J-1" vertex="1">
          <mxGeometry x="320" y="160" width="80" height="40" as="geometry" />
        </mxCell>
        <mxCell id="usbbzfsNIkUUJXwe7_7J-23" value="" style="edgeStyle=orthogonalEdgeStyle;rounded=0;orthogonalLoop=1;jettySize=auto;html=1;entryX=0.271;entryY=0;entryDx=0;entryDy=0;entryPerimeter=0;" parent="usbbzfsNIkUUJXwe7_7J-1" source="usbbzfsNIkUUJXwe7_7J-24" target="usbbzfsNIkUUJXwe7_7J-32" edge="1">
          <mxGeometry relative="1" as="geometry">
            <mxPoint x="770" y="190" as="targetPoint" />
          </mxGeometry>
        </mxCell>
        <mxCell id="usbbzfsNIkUUJXwe7_7J-24" value="&lt;div&gt;$$\text{numNewVotes}$$&lt;/div&gt;" style="rounded=0;whiteSpace=wrap;html=1;fontSize=11;fillColor=#d5e8d4;strokeColor=#82b366;fontFamily=Courier New;" parent="usbbzfsNIkUUJXwe7_7J-1" vertex="1">
          <mxGeometry x="710" y="80" width="120" height="40" as="geometry" />
        </mxCell>
        <mxCell id="usbbzfsNIkUUJXwe7_7J-25" value="&lt;div&gt;$$\text{numNewOverwrites}$$&lt;/div&gt;" style="rounded=0;whiteSpace=wrap;html=1;fontSize=11;fillColor=#d5e8d4;strokeColor=#82b366;fontFamily=Courier New;" parent="usbbzfsNIkUUJXwe7_7J-1" vertex="1">
          <mxGeometry x="710" y="30" width="120" height="40" as="geometry" />
        </mxCell>
        <mxCell id="usbbzfsNIkUUJXwe7_7J-26" value="$$AddBN254()$$" style="rounded=0;whiteSpace=wrap;html=1;fontSize=11;fillColor=#dae8fc;strokeColor=#6c8ebf;fontFamily=Courier New;" parent="usbbzfsNIkUUJXwe7_7J-1" vertex="1">
          <mxGeometry x="520" y="320" width="80" height="40" as="geometry" />
        </mxCell>
        <mxCell id="usbbzfsNIkUUJXwe7_7J-27" value="$$\text{stateRoot}^{\text{old}}$$" style="rounded=0;whiteSpace=wrap;html=1;fontSize=11;fillColor=#d5e8d4;strokeColor=#82b366;fontFamily=Courier New;" parent="usbbzfsNIkUUJXwe7_7J-1" vertex="1">
          <mxGeometry x="1040" y="30" width="80" height="40" as="geometry" />
        </mxCell>
        <mxCell id="usbbzfsNIkUUJXwe7_7J-28" value="$$\text{stateRoot}^{\text{new}}$$" style="rounded=0;whiteSpace=wrap;html=1;fontSize=11;fillColor=#d5e8d4;strokeColor=#82b366;fontFamily=Courier New;" parent="usbbzfsNIkUUJXwe7_7J-1" vertex="1">
          <mxGeometry x="1040" y="80" width="80" height="40" as="geometry" />
        </mxCell>
        <mxCell id="usbbzfsNIkUUJXwe7_7J-29" value="" style="edgeStyle=orthogonalEdgeStyle;rounded=0;orthogonalLoop=1;jettySize=auto;html=1;" parent="usbbzfsNIkUUJXwe7_7J-1" source="usbbzfsNIkUUJXwe7_7J-30" target="usbbzfsNIkUUJXwe7_7J-32" edge="1">
          <mxGeometry relative="1" as="geometry">
            <mxPoint x="880" y="215" as="targetPoint" />
          </mxGeometry>
        </mxCell>
        <mxCell id="usbbzfsNIkUUJXwe7_7J-30" value="merkleTree&lt;br&gt;parameters&lt;br&gt;witness" style="rounded=0;whiteSpace=wrap;html=1;fontSize=11;fillColor=#f8cecc;strokeColor=#b85450;fontFamily=Courier New;" parent="usbbzfsNIkUUJXwe7_7J-1" vertex="1">
          <mxGeometry x="840" y="30" width="80" height="90" as="geometry" />
        </mxCell>
        <mxCell id="usbbzfsNIkUUJXwe7_7J-31" value="merkleTree&lt;br&gt;state transition proofs" style="rounded=0;whiteSpace=wrap;html=1;fontSize=11;fillColor=#f8cecc;strokeColor=#b85450;fontFamily=Courier New;" parent="usbbzfsNIkUUJXwe7_7J-1" vertex="1">
          <mxGeometry x="940" y="30" width="80" height="90" as="geometry" />
        </mxCell>
        <mxCell id="usbbzfsNIkUUJXwe7_7J-32" value="$$MerkleTreeProcessor()$$" style="rounded=0;whiteSpace=wrap;html=1;fontSize=11;fillColor=#e1d5e7;strokeColor=#9673a6;fontFamily=Courier New;" parent="usbbzfsNIkUUJXwe7_7J-1" vertex="1">
          <mxGeometry x="640" y="320" width="480" height="40" as="geometry" />
        </mxCell>
        <mxCell id="usbbzfsNIkUUJXwe7_7J-33" value="" style="edgeStyle=orthogonalEdgeStyle;rounded=0;orthogonalLoop=1;jettySize=auto;html=1;entryX=0.25;entryY=0;entryDx=0;entryDy=0;startArrow=oval;startFill=1;" parent="usbbzfsNIkUUJXwe7_7J-1" edge="1">
          <mxGeometry relative="1" as="geometry">
            <mxPoint x="560" y="220" as="sourcePoint" />
            <mxPoint x="560" y="320" as="targetPoint" />
            <Array as="points">
              <mxPoint x="560" y="230" />
              <mxPoint x="560" y="230" />
            </Array>
          </mxGeometry>
        </mxCell>
        <mxCell id="usbbzfsNIkUUJXwe7_7J-34" value="" style="edgeStyle=orthogonalEdgeStyle;rounded=0;orthogonalLoop=1;jettySize=auto;html=1;exitX=0.5;exitY=1;exitDx=0;exitDy=0;startArrow=oval;startFill=1;" parent="usbbzfsNIkUUJXwe7_7J-1" edge="1">
          <mxGeometry relative="1" as="geometry">
            <mxPoint x="360" y="140" as="sourcePoint" />
            <mxPoint x="240" y="160" as="targetPoint" />
            <Array as="points">
              <mxPoint x="240" y="140" />
              <mxPoint x="240" y="160" />
            </Array>
          </mxGeometry>
        </mxCell>
        <mxCell id="usbbzfsNIkUUJXwe7_7J-35" value="" style="edgeStyle=orthogonalEdgeStyle;rounded=0;orthogonalLoop=1;jettySize=auto;html=1;startArrow=oval;startFill=1;jumpStyle=arc;" parent="usbbzfsNIkUUJXwe7_7J-1" edge="1">
          <mxGeometry relative="1" as="geometry">
            <mxPoint x="480" y="120" as="sourcePoint" />
            <mxPoint x="200" y="160" as="targetPoint" />
            <Array as="points">
              <mxPoint x="320" y="120" />
              <mxPoint x="200" y="120" />
            </Array>
          </mxGeometry>
        </mxCell>
        <mxCell id="usbbzfsNIkUUJXwe7_7J-36" value="" style="edgeStyle=orthogonalEdgeStyle;rounded=0;orthogonalLoop=1;jettySize=auto;html=1;startArrow=none;startFill=0;" parent="usbbzfsNIkUUJXwe7_7J-1" target="usbbzfsNIkUUJXwe7_7J-32" edge="1">
          <mxGeometry relative="1" as="geometry">
            <mxPoint x="480" y="80" as="sourcePoint" />
            <mxPoint x="480" y="180" as="targetPoint" />
            <Array as="points">
              <mxPoint x="480" y="160" />
              <mxPoint x="720" y="160" />
            </Array>
          </mxGeometry>
        </mxCell>
        <mxCell id="usbbzfsNIkUUJXwe7_7J-37" value="" style="edgeStyle=orthogonalEdgeStyle;rounded=0;orthogonalLoop=1;jettySize=auto;html=1;" parent="usbbzfsNIkUUJXwe7_7J-1" edge="1">
          <mxGeometry relative="1" as="geometry">
            <mxPoint x="979.75" y="120" as="sourcePoint" />
            <mxPoint x="979.75" y="320" as="targetPoint" />
          </mxGeometry>
        </mxCell>
        <mxCell id="usbbzfsNIkUUJXwe7_7J-38" value="" style="edgeStyle=orthogonalEdgeStyle;rounded=0;orthogonalLoop=1;jettySize=auto;html=1;" parent="usbbzfsNIkUUJXwe7_7J-1" edge="1">
          <mxGeometry relative="1" as="geometry">
            <mxPoint x="1079.75" y="120" as="sourcePoint" />
            <mxPoint x="1079.75" y="320" as="targetPoint" />
          </mxGeometry>
        </mxCell>
        <mxCell id="usbbzfsNIkUUJXwe7_7J-39" value="true" style="rounded=0;whiteSpace=wrap;html=1;fontSize=11;fontFamily=Courier New;strokeColor=none;" parent="usbbzfsNIkUUJXwe7_7J-1" vertex="1">
          <mxGeometry x="20" y="360" width="80" height="40" as="geometry" />
        </mxCell>
        <mxCell id="usbbzfsNIkUUJXwe7_7J-40" value="$$ReEnc()$$" style="rounded=0;whiteSpace=wrap;html=1;fontSize=11;fillColor=#ffe6cc;strokeColor=#d79b00;fontFamily=Courier New;" parent="usbbzfsNIkUUJXwe7_7J-1" vertex="1">
          <mxGeometry x="890" y="200" width="80" height="40" as="geometry" />
        </mxCell>
        <mxCell id="usbbzfsNIkUUJXwe7_7J-41" value="Old votes also need to be reencrypted! (at least, some)" style="rounded=0;whiteSpace=wrap;html=1;fontSize=11;fillColor=#ffe6cc;strokeColor=#d79b00;fontFamily=Courier New;" parent="usbbzfsNIkUUJXwe7_7J-1" vertex="1">
          <mxGeometry x="710" y="250" width="400" height="20" as="geometry" />
        </mxCell>
      </root>
    </mxGraphModel>
  </diagram>
</mxfile>
